# xmcd
#
# Track frame offsets:
#	150
#	17574
#	34147
#	51124
#	70219
#	85220
#	103135
#	122937
#	144095
#	160956
#	176873
#	192768
#
# Disc length: 2795 seconds
#
# Revision: 14
# Processed by: cddbd v1.5.2PL0 Copyright (c) Steve Scherf et al.
# Submitted via: Jack! The Knife 20 Magnifico
#
DISCID=a20ae90c
DTITLE=Black Veil Brides - Set The World On Fire
DYEAR=2011
DGENRE=Metal
TTITLE0=New Religion
TTITLE1=Set The World On Fire
TTITLE2=Fallen Angels
TTITLE3=Love Isn't Always Fair
TTITLE4=God Bless You
TTITLE5=Rebel Love Song
TTITLE6=Savior
TTITLE7=The Legacy
TTITLE8=Die For You
TTITLE9=Ritual
TTITLE10=Youth And Whiskey
TTITLE11=Smoke And Mirrors
EXTD=Josh Abraham and Lucien Walker
EXTT0=Abraham, Biersack, Pitts, Purdy, Walker
EXTT1=Abraham, Biersack, Pitts, Purdy, Walker
EXTT2=Abraham, Biersack, Pitts, Purdy, Walker, Ferguson
EXTT3=Abraham, Biersack, Pitts, Purdy, Walker
EXTT4=Biersack, Pitts, Purdy, Frederiksen
EXTT5=Biersack, Pitts, Purdy, Walker, Ferguson
EXTT6=Biersack, Walker, Ferguson
EXTT7=Biersack, Pitts, Purdy, Walker
EXTT8=Biersack, Pitts, Purdy, Frederiksen
EXTT9=Biersack, Pitts, Purdy, Walker
EXTT10=Biersack, Pitts, Purdy, Walker
EXTT11=Biersack, Pitts, Purdy, Walker
PLAYORDER=
